<mxfile host="app.diagrams.net" modified="2023-10-24T05:13:28.296Z" agent="Mozilla/5.0 (Windows NT 10.0; Win64; x64) AppleWebKit/537.36 (KHTML, like Gecko) Chrome/116.0.5845.888 YaBrowser/23.9.2.888 Yowser/2.5 Safari/537.36" etag="Wxh4ZRL09f3DUNPUbO7R" version="22.0.6" type="device">
  <diagram id="C5RBs43oDa-KdzZeNtuy" name="Page-1">
    <mxGraphModel dx="1050" dy="614" grid="1" gridSize="10" guides="1" tooltips="1" connect="1" arrows="1" fold="1" page="1" pageScale="1" pageWidth="827" pageHeight="1169" math="0" shadow="0">
      <root>
        <mxCell id="WIyWlLk6GJQsqaUBKTNV-0" />
        <mxCell id="WIyWlLk6GJQsqaUBKTNV-1" parent="WIyWlLk6GJQsqaUBKTNV-0" />
        <mxCell id="m6tqxD_KxYIh2c-Xh0lO-1" value="Employer" style="swimlane;fontStyle=0;childLayout=stackLayout;horizontal=1;startSize=30;horizontalStack=0;resizeParent=1;resizeParentMax=0;resizeLast=0;collapsible=1;marginBottom=0;whiteSpace=wrap;html=1;" parent="WIyWlLk6GJQsqaUBKTNV-1" vertex="1">
          <mxGeometry x="120" y="120" width="160" height="90" as="geometry" />
        </mxCell>
        <mxCell id="m6tqxD_KxYIh2c-Xh0lO-2" value="+ name: String" style="text;strokeColor=none;fillColor=none;align=left;verticalAlign=middle;spacingLeft=4;spacingRight=4;overflow=hidden;points=[[0,0.5],[1,0.5]];portConstraint=eastwest;rotatable=0;whiteSpace=wrap;html=1;" parent="m6tqxD_KxYIh2c-Xh0lO-1" vertex="1">
          <mxGeometry y="30" width="160" height="30" as="geometry" />
        </mxCell>
        <mxCell id="m6tqxD_KxYIh2c-Xh0lO-7" value="" style="endArrow=none;html=1;rounded=0;exitX=0.004;exitY=0.004;exitDx=0;exitDy=0;exitPerimeter=0;entryX=1.007;entryY=1.001;entryDx=0;entryDy=0;entryPerimeter=0;" parent="m6tqxD_KxYIh2c-Xh0lO-1" source="4wv-6QbAj99MlIfdMDba-1" target="m6tqxD_KxYIh2c-Xh0lO-2" edge="1">
          <mxGeometry width="50" height="50" relative="1" as="geometry">
            <mxPoint x="-2.7999999999999545" y="58.59000000000003" as="sourcePoint" />
            <mxPoint x="137.20000000000005" y="59.39999999999998" as="targetPoint" />
          </mxGeometry>
        </mxCell>
        <mxCell id="4wv-6QbAj99MlIfdMDba-1" value="+ Emploee(String name)" style="text;strokeColor=none;fillColor=none;align=left;verticalAlign=middle;spacingLeft=4;spacingRight=4;overflow=hidden;points=[[0,0.5],[1,0.5]];portConstraint=eastwest;rotatable=0;whiteSpace=wrap;html=1;" vertex="1" parent="m6tqxD_KxYIh2c-Xh0lO-1">
          <mxGeometry y="60" width="160" height="30" as="geometry" />
        </mxCell>
        <mxCell id="m6tqxD_KxYIh2c-Xh0lO-8" value="CalculateSalary" style="swimlane;fontStyle=0;childLayout=stackLayout;horizontal=1;startSize=30;horizontalStack=0;resizeParent=1;resizeParentMax=0;resizeLast=0;collapsible=1;marginBottom=0;whiteSpace=wrap;html=1;" parent="WIyWlLk6GJQsqaUBKTNV-1" vertex="1">
          <mxGeometry x="330" y="110" width="270" height="150" as="geometry" />
        </mxCell>
        <mxCell id="m6tqxD_KxYIh2c-Xh0lO-9" value="+ baseSalary: int" style="text;strokeColor=none;fillColor=none;align=left;verticalAlign=middle;spacingLeft=4;spacingRight=4;overflow=hidden;points=[[0,0.5],[1,0.5]];portConstraint=eastwest;rotatable=0;whiteSpace=wrap;html=1;" parent="m6tqxD_KxYIh2c-Xh0lO-8" vertex="1">
          <mxGeometry y="30" width="270" height="30" as="geometry" />
        </mxCell>
        <mxCell id="m6tqxD_KxYIh2c-Xh0lO-10" value="+ valueTime: int" style="text;strokeColor=none;fillColor=none;align=left;verticalAlign=middle;spacingLeft=4;spacingRight=4;overflow=hidden;points=[[0,0.5],[1,0.5]];portConstraint=eastwest;rotatable=0;whiteSpace=wrap;html=1;" parent="m6tqxD_KxYIh2c-Xh0lO-8" vertex="1">
          <mxGeometry y="60" width="270" height="30" as="geometry" />
        </mxCell>
        <mxCell id="m6tqxD_KxYIh2c-Xh0lO-12" value="" style="endArrow=none;html=1;rounded=0;exitX=0;exitY=-0.065;exitDx=0;exitDy=0;exitPerimeter=0;entryX=0.998;entryY=0.95;entryDx=0;entryDy=0;entryPerimeter=0;" parent="m6tqxD_KxYIh2c-Xh0lO-8" source="4wv-6QbAj99MlIfdMDba-0" target="m6tqxD_KxYIh2c-Xh0lO-10" edge="1">
          <mxGeometry width="50" height="50" relative="1" as="geometry">
            <mxPoint x="-1.3999999999999546" y="88.59000000000003" as="sourcePoint" />
            <mxPoint x="138.60000000000005" y="89.39999999999998" as="targetPoint" />
          </mxGeometry>
        </mxCell>
        <mxCell id="4wv-6QbAj99MlIfdMDba-0" value="+&amp;nbsp;CallucateSalary(int baseSalary, int valueTime)" style="text;strokeColor=none;fillColor=none;align=left;verticalAlign=middle;spacingLeft=4;spacingRight=4;overflow=hidden;points=[[0,0.5],[1,0.5]];portConstraint=eastwest;rotatable=0;whiteSpace=wrap;html=1;" vertex="1" parent="m6tqxD_KxYIh2c-Xh0lO-8">
          <mxGeometry y="90" width="270" height="30" as="geometry" />
        </mxCell>
        <mxCell id="m6tqxD_KxYIh2c-Xh0lO-11" value="+ calculateSalary(): int" style="text;strokeColor=none;fillColor=none;align=left;verticalAlign=middle;spacingLeft=4;spacingRight=4;overflow=hidden;points=[[0,0.5],[1,0.5]];portConstraint=eastwest;rotatable=0;whiteSpace=wrap;html=1;" parent="m6tqxD_KxYIh2c-Xh0lO-8" vertex="1">
          <mxGeometry y="120" width="270" height="30" as="geometry" />
        </mxCell>
      </root>
    </mxGraphModel>
  </diagram>
</mxfile>
